HIERARCHY
ROOT hip
{
	OFFSET 0.000000 0.000000 0.000000
	CHANNELS 6 Xposition Yposition Zposition Xrotation Zrotation Yrotation 
	JOINT abdomen
	{
		OFFSET 0.000000 3.422050 0.000000
		CHANNELS 3 Xrotation Zrotation Yrotation 
		JOINT chest
		{
			OFFSET 0.000000 8.486693 -0.684411
			CHANNELS 3 Xrotation Zrotation Yrotation 
			JOINT neck
			{
				OFFSET 0.000000 10.266162 -0.273764
				CHANNELS 3 Xrotation Zrotation Yrotation 
				JOINT head
				{
					OFFSET 0.000000 3.148285 0.000000
					CHANNELS 3 Xrotation Zrotation Yrotation 
					End Site
					{
						OFFSET 0.000000 3.148289 0.000000
					}
				}
			}
			JOINT lCollar
			{
				OFFSET 3.422053 6.707223 -0.821293
				CHANNELS 3 Yrotation Zrotation Xrotation 
				JOINT lShldr
				{
					OFFSET 3.285171 0.000000 0.000000
					CHANNELS 3 Zrotation Yrotation Xrotation 
					JOINT lForeArm
					{
						OFFSET 10.129278 0.000000 0.000000
						CHANNELS 3 Yrotation Zrotation Xrotation 
						JOINT lHand
						{
							OFFSET 8.486692 0.000000 0.000000
							CHANNELS 3 Zrotation Yrotation Xrotation 
							End Site
							{
								OFFSET 4.106464 0.000000 0.000000
							}
						}
					}
				}
			}
			JOINT rCollar
			{
				OFFSET -3.558935 6.707223 -0.821293
				CHANNELS 3 Yrotation Zrotation Xrotation 
				JOINT rShldr
				{
					OFFSET -3.148289 0.000000 0.000000
					CHANNELS 3 Zrotation Yrotation Xrotation 
					JOINT rForeArm
					{
						OFFSET -10.266159 0.000000 0.000000
						CHANNELS 3 Yrotation Zrotation Xrotation 
						JOINT rHand
						{
							OFFSET -8.349810 0.000000 0.000000
							CHANNELS 3 Zrotation Yrotation Xrotation 
							End Site
							{
								OFFSET -4.106464 0.000000 0.000000
							}
						}
					}
				}
			}
		}
	}
	JOINT lThigh
	{
		OFFSET 5.338403 -1.642589 1.368821
		CHANNELS 3 Xrotation Zrotation Yrotation 
		JOINT lShin
		{
			OFFSET -2.053232 -20.121670 0.000000
			CHANNELS 3 Xrotation Zrotation Yrotation 
			JOINT lFoot
			{
				OFFSET 0.000000 -19.300380 -1.231939
				CHANNELS 3 Xrotation Yrotation Zrotation 
				End Site
				{
					OFFSET 0.000000 -2.463878 4.653993
				}
			}
		}
	}
	JOINT rThigh
	{
		OFFSET -5.338403 -1.642589 1.368821
		CHANNELS 3 Xrotation Zrotation Yrotation 
		JOINT rShin
		{
			OFFSET 2.053232 -20.121670 0.000000
			CHANNELS 3 Xrotation Zrotation Yrotation 
			JOINT rFoot
			{
				OFFSET 0.000000 -19.300380 -1.231939
				CHANNELS 3 Xrotation Yrotation Zrotation 
				End Site
				{
					OFFSET 0.000000 -2.463878 4.653993
				}
			}
		}
	}
}
MOTION
Frames: 13
Frame Time: 0.066652
0.000000 43.528500 0.000000 0.000000 0.000000 0.000000 0.000000 0.000000 0.000000 0.000000 0.000000 0.000000 0.000000 0.000000 0.000000 0.000000 0.000000 0.000000 0.000000 0.000000 0.000000 0.000000 0.000000 0.000000 0.000000 0.000000 0.000000 0.000000 0.000000 0.000000 0.000000 0.000000 0.000000 0.000000 0.000000 0.000000 0.000000 0.000000 0.000000 0.000000 0.000000 0.000000 0.000000 0.000000 0.000000 0.000000 0.000000 0.000000 0.000000 0.000000 0.000000 0.000000 0.000000 0.000000 0.000000 0.000000 0.000000 0.000000 0.000000 0.000000 
3.979969 11.169228 -25.420647 0.000000 0.000000 0.000000 -0.372417 -0.050872 -0.050542 -0.463590 1.154336 -0.366644 -0.123013 0.411246 0.316045 0.243044 -0.000256 0.120646 -4.000099 -20.163111 -1.047341 -47.211235 -51.893898 12.075116 -49.643105 -23.421785 -7.534933 -7.003695 -0.002244 40.998295 3.841901 24.841196 -1.059622 45.920727 49.710884 11.291563 36.518547 26.975220 -2.917286 6.999256 -0.001216 -62.202354 -64.220673 6.220667 -0.333090 153.684662 5.841012 0.095174 60.681511 8.247020 3.782702 -64.179497 -6.202674 0.274019 153.589371 -5.894410 -0.102977 61.338329 -8.287409 -3.630198 
3.979969 11.169228 -25.420647 0.000000 0.000000 0.000000 -1.141571 -0.050688 -0.050488 0.802196 1.158730 -0.368403 -0.287328 0.808950 0.645590 0.486432 0.009858 0.242155 -4.529626 -20.139074 -2.002721 -46.605511 -51.716057 11.575634 -49.104244 -23.181150 -7.322911 -8.684856 -0.677422 40.831985 3.279788 24.411158 -1.674528 46.341778 49.936420 11.609876 36.761738 27.111902 -3.030254 8.028832 -0.027530 -62.393650 -64.220673 6.220667 -0.333090 153.684662 5.841012 0.095174 60.681511 8.247020 3.782702 -64.179497 -6.202674 0.274019 153.589371 -5.894410 -0.102977 61.338329 -8.287409 -3.630199 
3.979969 11.169228 -25.420647 0.000000 0.000000 0.000000 -1.911107 -0.050504 -0.050436 2.069694 1.163167 -0.370067 -0.449512 1.207934 0.974315 0.729894 0.019458 0.363732 -5.058934 -20.106737 -2.958330 -46.004578 -51.534912 11.081095 -48.567177 -22.938635 -7.113683 -10.369117 -1.359101 40.685143 2.713979 23.986225 -2.292572 46.766830 50.160480 11.932310 37.005539 27.248154 -3.144018 9.059442 -0.050423 -62.585564 -64.220673 6.220667 -0.333090 153.684662 5.841012 0.095174 60.681511 8.247020 3.782702 -64.179504 -6.202675 0.274019 153.589371 -5.894411 -0.102977 61.338329 -8.287409 -3.630198 
3.979969 11.169228 -25.420647 0.000000 0.000000 0.000000 -2.680955 -0.050319 -0.050386 3.338594 1.167645 -0.371634 -0.609560 1.608167 1.302233 0.973425 0.028542 0.485373 -5.587778 -20.066082 -3.913912 -45.408524 -51.350590 10.591553 -48.031918 -22.694275 -6.907259 -12.056097 -2.046382 40.558083 2.144577 23.566559 -2.913661 47.195869 50.382999 12.258871 37.249950 27.383987 -3.258578 10.090899 -0.069872 -62.777996 -64.220673 6.220667 -0.333090 153.684662 5.841012 0.095174 60.681511 8.247020 3.782701 -64.179489 -6.202674 0.274019 153.589355 -5.894410 -0.102977 61.338322 -8.287408 -3.630198 
3.979969 11.169228 -25.420647 0.000000 0.000000 0.000000 -3.451047 -0.050133 -0.050339 4.608590 1.172161 -0.373102 -0.767470 2.009619 1.629355 1.217022 0.037111 0.607075 -6.115912 -20.017130 -4.869214 -44.817326 -51.163067 10.107011 -47.498463 -22.448103 -6.703644 -13.745423 -2.738346 40.451107 1.571689 23.152323 -3.537699 47.628956 50.603962 12.589614 37.494987 27.519388 -3.373937 11.123026 -0.085864 -62.970867 -64.220673 6.220667 -0.333090 153.684662 5.841012 0.095174 60.681511 8.247020 3.782702 -64.179497 -6.202674 0.274019 153.589355 -5.894410 -0.102977 61.338322 -8.287409 -3.630197 
3.979969 11.169228 -25.420647 0.000000 0.000000 0.000000 -4.221314 -0.049947 -0.050294 5.879367 1.176711 -0.374471 -0.923239 2.412256 1.955694 1.460681 0.045164 0.728834 -6.643099 -19.959900 -5.823982 -44.231075 -50.972454 9.627526 -46.966866 -22.200180 -6.502856 -15.436723 -3.434055 40.364449 0.995422 22.743668 -4.164581 48.066109 50.823322 12.924564 37.740623 27.654346 -3.490091 12.155635 -0.098382 -63.164093 -64.220673 6.220667 -0.333090 153.684662 5.841012 0.095174 60.681511 8.247020 3.782702 -64.179497 -6.202674 0.274019 153.589371 -5.894410 -0.102977 61.338329 -8.287409 -3.630198 
3.979969 11.169228 -25.420647 0.000000 0.000000 0.000000 -4.991684 -0.049760 -0.050252 7.150617 1.181291 -0.375739 -1.076863 2.816047 2.281262 1.704397 0.052701 0.850647 -7.169095 -19.894409 -6.777962 -43.649750 -50.778767 9.153104 -46.437103 -21.950523 -6.304895 -17.129631 -4.132552 40.298298 0.415892 22.340746 -4.794205 48.507362 51.041065 13.263752 37.986885 27.788870 -3.607045 13.188537 -0.107417 -63.357540 -64.220673 6.220668 -0.333090 153.684662 5.841012 0.095174 60.681511 8.247020 3.782702 -64.179497 -6.202674 0.274019 153.589371 -5.894410 -0.102977 61.338329 -8.287409 -3.630198 
3.979969 11.169228 -25.420647 0.000000 0.000000 0.000000 -5.762090 -0.049572 -0.050212 8.422025 1.185900 -0.376905 -1.228339 3.220961 2.606073 1.948168 0.059720 0.972511 -7.693665 -19.820700 -7.730909 -43.073357 -50.582047 8.683757 -45.909184 -21.699183 -6.109768 -18.823784 -4.832877 40.252800 -0.166785 21.943708 -5.426463 48.952751 51.257145 13.607208 38.233772 27.922947 -3.724798 14.221557 -0.112966 -63.551140 -64.220673 6.220668 -0.333090 153.684662 5.841012 0.095174 60.681511 8.247020 3.782702 -64.179497 -6.202674 0.274019 153.589371 -5.894411 -0.102977 61.338329 -8.287409 -3.630198 
3.979969 11.169228 -25.420647 0.000000 0.000000 0.000000 -6.532462 -0.049384 -0.050175 9.693281 1.190532 -0.377968 -1.377665 3.626966 2.930139 2.191989 0.066222 1.094421 -8.216567 -19.738802 -8.682570 -42.501942 -50.382374 8.219509 -45.383114 -21.446190 -5.917481 -20.518826 -5.534055 40.228100 -0.752488 21.552700 -6.061238 49.402306 51.471531 13.954969 38.481262 28.056570 -3.843351 15.254500 -0.115023 -63.744797 -64.220673 6.220667 -0.333090 153.684662 5.841012 0.095174 60.681511 8.247019 3.782702 -64.179497 -6.202674 0.274019 153.589355 -5.894409 -0.102977 61.338329 -8.287409 -3.630198 
3.979969 11.169228 -25.420647 0.000000 0.000000 0.000000 -7.302729 -0.049196 -0.050140 10.964064 1.195186 -0.378928 -1.524837 4.034028 3.253473 2.435857 0.072205 1.216374 -8.737570 -19.648762 -9.632703 -41.935482 -50.179760 7.760366 -44.858902 -21.191584 -5.728038 -22.214390 -6.235112 40.224209 -1.341093 21.167858 -6.698417 49.856064 51.684200 14.307061 38.729382 28.189741 -3.962704 16.287178 -0.113589 -63.938400 -64.220673 6.220667 -0.333090 153.684662 5.841012 0.095174 60.681511 8.247020 3.782702 -64.179497 -6.202674 0.274019 153.589355 -5.894410 -0.102977 61.338329 -8.287409 -3.630198 
3.979969 11.169228 -25.420647 0.000000 0.000000 0.000000 -8.072820 -0.049007 -0.050108 12.234071 1.199856 -0.379785 -1.669853 4.442116 3.576089 2.679767 0.077670 1.338367 -9.256447 -19.550646 -10.581065 -41.374031 -49.974312 7.306345 -44.336559 -20.935413 -5.541444 -23.910128 -6.935081 40.241192 -1.932472 20.789314 -7.337879 50.314041 51.895111 14.663511 38.978111 28.322445 -4.082854 17.319418 -0.108668 -64.131874 -64.220673 6.220667 -0.333090 153.684662 5.841012 0.095174 60.681511 8.247020 3.782702 -64.179497 -6.202674 0.274019 153.589371 -5.894410 -0.102977 61.338329 -8.287409 -3.630198 
3.979969 11.169228 -25.420647 0.000000 0.000000 0.000000 -8.842670 -0.048817 -0.050079 13.502990 1.204540 -0.380536 -1.812709 4.851198 3.898003 2.923715 0.082616 1.460396 -9.772971 -19.444510 -11.527422 -40.817574 -49.766045 6.857446 -43.816082 -20.677704 -5.357701 -25.605680 -7.632991 40.279007 -2.526494 20.417200 -7.979500 50.776260 52.104233 15.024342 39.227459 28.454689 -4.203805 18.351028 -0.100269 -64.325119 -64.220673 6.220667 -0.333090 153.684662 5.841012 0.095174 60.681511 8.247020 3.782702 -64.179497 -6.202674 0.274019 153.589371 -5.894410 -0.102977 61.338329 -8.287409 -3.630198 
